<svg data-v-fde0c5aa="" xmlns="http://www.w3.org/2000/svg" viewBox="0 0 300 300" class="iconAbove"><!----><defs data-v-fde0c5aa=""><!----></defs><rect data-v-fde0c5aa="" fill="#E8ECD7" x="0" y="0" width="300px" height="300px" class="logo-background-square"></rect><defs data-v-fde0c5aa=""><!----></defs><g data-v-fde0c5aa="" id="91bd1f68-1d24-4ee3-8538-563c6a788843" fill="#1F4529" transform="matrix(2.9830196084884797,0,0,2.9830196084884797,17.494263429300684,171.42427655556136)"><path d="M0.84 12.29L0.84 2.69L4.86 2.69Q6.27 2.69 7.04 3.44Q7.80 4.20 7.80 5.43L7.80 5.43Q7.80 6.30 7.37 6.94Q6.94 7.59 6.19 7.90L6.19 7.90L8.04 12.29L6.09 12.29L4.49 8.29L2.63 8.29L2.63 12.29L0.84 12.29ZM2.63 6.71L4.61 6.71Q5.24 6.71 5.55 6.38Q5.87 6.05 5.87 5.43L5.87 5.43Q5.87 4.89 5.57 4.58Q5.28 4.28 4.68 4.28L4.68 4.28L2.63 4.28L2.63 6.71ZM11.61 12.46Q10.16 12.46 9.44 11.52Q8.72 10.57 8.72 8.61L8.72 8.61Q8.72 4.76 11.55 4.76L11.55 4.76Q12.89 4.76 13.55 5.70Q14.21 6.64 14.21 8.61L14.21 8.61L14.21 9.03L10.47 9.03Q10.49 10.07 10.75 10.58Q11.00 11.09 11.61 11.09L11.61 11.09Q12.04 11.09 12.29 10.72Q12.54 10.35 12.54 9.69L12.54 9.69L14.21 9.69Q14.21 11.06 13.50 11.76Q12.78 12.46 11.61 12.46L11.61 12.46ZM10.49 7.81L12.45 7.81Q12.45 6.13 11.55 6.13L11.55 6.13Q11.03 6.13 10.78 6.56Q10.53 6.99 10.49 7.81L10.49 7.81ZM18.03 12.46Q16.59 12.46 15.92 11.53Q15.25 10.60 15.25 8.61L15.25 8.61Q15.25 6.64 15.93 5.70Q16.60 4.76 17.98 4.76L17.98 4.76Q19.19 4.76 19.87 5.48Q20.55 6.20 20.55 7.70L20.55 7.70L18.83 7.70Q18.83 6.17 17.98 6.17L17.98 6.17Q17.46 6.17 17.23 6.71Q17.00 7.25 17.00 8.34L17.00 8.34L17.00 8.88Q17.00 9.97 17.24 10.51Q17.49 11.05 18.03 11.05L18.03 11.05Q18.48 11.05 18.68 10.67Q18.89 10.29 18.89 9.52L18.89 9.52L20.55 9.52Q20.55 11.02 19.89 11.74Q19.24 12.46 18.03 12.46L18.03 12.46ZM21.81 3.70L21.81 2.17L23.49 2.17L23.49 3.70L21.81 3.70ZM21.81 12.29L21.81 4.93L23.49 4.93L23.49 12.29L21.81 12.29ZM25.02 14.71L25.02 4.93L26.42 4.93L26.59 5.84L26.66 5.84Q26.92 5.31 27.36 5.03Q27.79 4.76 28.32 4.76L28.32 4.76Q29.44 4.76 30.07 5.72Q30.69 6.68 30.69 8.62L30.69 8.62Q30.69 10.54 30.07 11.50Q29.44 12.46 28.41 12.46L28.41 12.46Q27.85 12.46 27.41 12.21Q26.96 11.97 26.77 11.54L26.77 11.54L26.70 11.54L26.70 14.71L25.02 14.71ZM27.82 10.93Q28.41 10.93 28.67 10.42Q28.94 9.91 28.94 8.88L28.94 8.88L28.94 8.34Q28.94 7.31 28.67 6.80Q28.41 6.29 27.82 6.29L27.82 6.29Q27.23 6.29 26.96 6.80Q26.70 7.31 26.70 8.34L26.70 8.34L26.70 8.85Q26.70 9.88 26.96 10.41Q27.23 10.93 27.82 10.93L27.82 10.93ZM34.58 12.46Q33.14 12.46 32.42 11.52Q31.70 10.57 31.70 8.61L31.70 8.61Q31.70 4.76 34.52 4.76L34.52 4.76Q35.87 4.76 36.53 5.70Q37.18 6.64 37.18 8.61L37.18 8.61L37.18 9.03L33.45 9.03Q33.46 10.07 33.72 10.58Q33.98 11.09 34.58 11.09L34.58 11.09Q35.01 11.09 35.27 10.72Q35.52 10.35 35.52 9.69L35.52 9.69L37.18 9.69Q37.18 11.06 36.47 11.76Q35.76 12.46 34.58 12.46L34.58 12.46ZM33.46 7.81L35.42 7.81Q35.42 6.13 34.52 6.13L34.52 6.13Q34.01 6.13 33.75 6.56Q33.50 6.99 33.46 7.81L33.46 7.81ZM41.58 12.29L41.58 2.69L44.10 2.69L45.29 7.98Q45.37 8.37 45.50 9.13Q45.63 9.90 45.67 10.15L45.67 10.15L45.72 10.15Q45.75 9.88 45.86 9.11Q45.96 8.33 46.05 7.98L46.05 7.98L47.22 2.69L49.66 2.69L49.66 12.29L48.01 12.29L48.01 6.17Q48.01 5.75 48.03 5.28Q48.06 4.82 48.08 4.63L48.08 4.63L48.02 4.63L47.68 6.15L46.34 12.29L44.79 12.29L43.43 6.12L43.09 4.63L43.04 4.63Q43.05 4.82 43.08 5.29Q43.11 5.77 43.11 6.17L43.11 6.17L43.11 12.29L41.58 12.29ZM52.44 12.46Q51.76 12.46 51.18 11.99Q50.60 11.52 50.60 10.39L50.60 10.39Q50.60 8.99 51.55 8.40Q52.50 7.81 54.25 7.81L54.25 7.81L54.25 7.04Q54.25 6.61 54.09 6.37Q53.93 6.13 53.48 6.13L53.48 6.13Q53.02 6.13 52.81 6.36Q52.60 6.59 52.60 6.90L52.60 6.90L52.60 7.11L50.96 7.11Q50.95 7.03 50.95 6.80L50.95 6.80Q50.95 5.88 51.63 5.32Q52.30 4.76 53.44 4.76L53.44 4.76Q54.70 4.76 55.32 5.32Q55.94 5.88 55.94 6.93L55.94 6.93L55.94 10.56Q55.94 10.81 56.06 10.93Q56.17 11.05 56.34 11.05L56.34 11.05L56.67 11.05L56.67 12.24Q56.25 12.46 55.68 12.46L55.68 12.46Q55.19 12.46 54.84 12.20Q54.50 11.94 54.38 11.49L54.38 11.49L54.31 11.49Q53.96 11.98 53.54 12.22Q53.13 12.46 52.44 12.46L52.44 12.46ZM53.14 11.06Q53.70 11.06 53.98 10.61Q54.25 10.16 54.25 9.45L54.25 9.45L54.25 9.03Q53.40 9.03 52.86 9.30Q52.32 9.58 52.32 10.23L52.32 10.23Q52.32 10.63 52.52 10.84Q52.72 11.06 53.14 11.06L53.14 11.06ZM57.55 12.29L57.55 4.93L58.95 4.93L59.12 5.84L59.21 5.84Q59.53 5.36 59.99 5.06Q60.45 4.76 61.07 4.76L61.07 4.76Q61.98 4.76 62.50 5.33Q63.03 5.89 63.03 7.13L63.03 7.13L63.03 12.29L61.35 12.29L61.35 7.59Q61.35 6.90 61.10 6.59Q60.86 6.29 60.38 6.29L60.38 6.29Q59.89 6.29 59.56 6.71Q59.23 7.14 59.23 7.76L59.23 7.76L59.23 12.29L57.55 12.29ZM65.84 12.46Q65.16 12.46 64.58 11.99Q63.99 11.52 63.99 10.39L63.99 10.39Q63.99 8.99 64.95 8.40Q65.90 7.81 67.65 7.81L67.65 7.81L67.65 7.04Q67.65 6.61 67.49 6.37Q67.33 6.13 66.88 6.13L66.88 6.13Q66.42 6.13 66.21 6.36Q66.00 6.59 66.00 6.90L66.00 6.90L66.00 7.11L64.36 7.11Q64.34 7.03 64.34 6.80L64.34 6.80Q64.34 5.88 65.02 5.32Q65.70 4.76 66.84 4.76L66.84 4.76Q68.10 4.76 68.72 5.32Q69.34 5.88 69.34 6.93L69.34 6.93L69.34 10.56Q69.34 10.81 69.45 10.93Q69.57 11.05 69.73 11.05L69.73 11.05L70.07 11.05L70.07 12.24Q69.65 12.46 69.08 12.46L69.08 12.46Q68.59 12.46 68.24 12.20Q67.90 11.94 67.77 11.49L67.77 11.49L67.70 11.49Q67.35 11.98 66.94 12.22Q66.53 12.46 65.84 12.46L65.84 12.46ZM66.54 11.06Q67.10 11.06 67.38 10.61Q67.65 10.16 67.65 9.45L67.65 9.45L67.65 9.03Q66.79 9.03 66.25 9.30Q65.72 9.58 65.72 10.23L65.72 10.23Q65.72 10.63 65.92 10.84Q66.12 11.06 66.54 11.06L66.54 11.06ZM72.03 14.84Q71.34 14.84 70.88 14.36Q70.41 13.89 70.41 13.15L70.41 13.15Q70.41 12.17 71.34 11.65L71.34 11.65Q70.76 11.28 70.76 10.54L70.76 10.54Q70.76 10.08 71.06 9.75Q71.36 9.42 71.83 9.25L71.83 9.25Q70.94 8.60 70.94 7.27L70.94 7.27Q70.94 6.10 71.64 5.43Q72.35 4.76 73.65 4.76L73.65 4.76Q74.35 4.76 74.89 4.97L74.89 4.97Q75.26 4.70 75.43 4.33Q75.60 3.96 75.60 3.70L75.60 3.70L76.99 3.70Q76.99 5.21 75.80 5.57L75.80 5.57Q76.38 6.23 76.38 7.27L76.38 7.27Q76.38 8.43 75.68 9.10Q74.97 9.77 73.65 9.77L73.65 9.77L72.95 9.77Q72.73 9.77 72.59 9.90Q72.45 10.02 72.45 10.22L72.45 10.22Q72.45 10.40 72.58 10.53Q72.70 10.65 72.88 10.65L72.88 10.65L75.43 10.65Q76.15 10.65 76.63 11.18Q77.11 11.70 77.11 12.57L77.11 12.57Q77.11 13.24 76.80 13.76Q76.48 14.28 75.94 14.56Q75.39 14.84 74.73 14.84L74.73 14.84L72.03 14.84ZM73.65 8.53Q74.17 8.53 74.44 8.20Q74.70 7.87 74.70 7.27L74.70 7.27Q74.70 6.66 74.44 6.33Q74.17 6.01 73.65 6.01L73.65 6.01Q73.15 6.01 72.88 6.33Q72.62 6.66 72.62 7.27L72.62 7.27Q72.62 7.87 72.88 8.20Q73.15 8.53 73.65 8.53L73.65 8.53ZM72.77 13.57L74.66 13.57Q74.98 13.57 75.20 13.38Q75.42 13.19 75.42 12.88L75.42 12.88Q75.42 12.57 75.22 12.39Q75.03 12.21 74.73 12.21L74.73 12.21L72.77 12.21Q72.49 12.21 72.30 12.40Q72.10 12.60 72.10 12.88L72.10 12.88Q72.10 13.19 72.29 13.38Q72.48 13.57 72.77 13.57L72.77 13.57ZM80.51 12.46Q79.07 12.46 78.35 11.52Q77.63 10.57 77.63 8.61L77.63 8.61Q77.63 4.76 80.46 4.76L80.46 4.76Q81.80 4.76 82.46 5.70Q83.12 6.64 83.12 8.61L83.12 8.61L83.12 9.03L79.38 9.03Q79.39 10.07 79.65 10.58Q79.91 11.09 80.51 11.09L80.51 11.09Q80.95 11.09 81.20 10.72Q81.45 10.35 81.45 9.69L81.45 9.69L83.12 9.69Q83.12 11.06 82.40 11.76Q81.69 12.46 80.51 12.46L80.51 12.46ZM79.39 7.81L81.35 7.81Q81.35 6.13 80.46 6.13L80.46 6.13Q79.94 6.13 79.69 6.56Q79.44 6.99 79.39 7.81L79.39 7.81ZM84.35 12.29L84.35 4.93L85.75 4.93L85.95 6.01L86.03 6.01Q86.21 5.45 86.51 5.10Q86.80 4.76 87.30 4.76L87.30 4.76Q87.57 4.76 87.77 4.81Q87.96 4.86 88.00 4.87L88.00 4.87L88.00 6.50L87.40 6.50Q86.79 6.50 86.41 6.89Q86.03 7.28 86.03 8.19L86.03 8.19L86.03 12.29L84.35 12.29Z"></path></g><defs data-v-fde0c5aa=""><!----></defs><g data-v-fde0c5aa="" id="8e2b6b82-7875-4b74-856d-1e28ce9f6271" stroke="none" fill="#1F4529" transform="matrix(3.7798016384110817,0,0,3.7798016384110817,89.52326874673157,61.62636446021091)"><path style="line-height:normal;text-indent:0;text-align:start;text-decoration-line:none;text-decoration-style:solid;text-decoration-color:#000;text-transform:none;block-progression:tb;white-space:normal;isolation:auto;mix-blend-mode:normal;solid-color:#000;solid-opacity:1" d="M13.967 13.466c-.71.83-.577 2.51.3 3.266.984.984 2.577 1.038 3.54.076.962-.962.787-2.734-.077-3.537-.92-.855-2.488-1.296-3.763.195zm1.97.029c.384.01.775.17 1.086.48.622.622.636 1.564.077 2.123-.56.56-1.503.546-2.125-.076-.621-.62-.634-1.561-.079-2.12h.002a1.4 1.4 0 011.04-.405z" color="#000" font-weight="400" font-family="sans-serif" overflow="visible"></path><path style="line-height:normal;text-indent:0;text-align:start;text-decoration-line:none;text-decoration-style:solid;text-decoration-color:#000;text-transform:none;block-progression:tb;white-space:normal;isolation:auto;mix-blend-mode:normal;solid-color:#000;solid-opacity:1" d="M4.992 7.5a.5.5 0 00-.492.507v4.484a.5.5 0 101 0V8.007a.5.5 0 00-.508-.508z" color="#000" font-weight="400" font-family="sans-serif" overflow="visible" stroke-linecap="round"></path><path style="line-height:normal;text-indent:0;text-align:start;text-decoration-line:none;text-decoration-style:solid;text-decoration-color:#000;text-transform:none;block-progression:tb;white-space:normal;isolation:auto;mix-blend-mode:normal;solid-color:#000;solid-opacity:1" d="M.5 12.5v1.571c0 .584.333 1.09.793 1.418.46.329 1.057.51 1.707.51.65 0 1.245-.181 1.705-.51.46-.328.795-.834.795-1.418V12.5h-5zm1 1h3v.571c0 .208-.112.416-.375.604s-.667.324-1.125.324c-.458 0-.862-.136-1.125-.324s-.375-.396-.375-.604V13.5zM1.5 18.5v6.317c0 .375.213.695.482.89.27.193.605.292.963.292h.11c.358 0 .692-.099.96-.293.27-.194.485-.514.485-.889V18.5h-3zm1 1h1v5.317s.002.026-.07.078a.668.668 0 01-.375.104h-.11a.68.68 0 01-.377-.103c-.072-.053-.068-.075-.068-.079V19.5z" color="#000" font-weight="400" font-family="sans-serif" overflow="visible" stroke-linecap="round"></path><path style="line-height:normal;text-indent:0;text-align:start;text-decoration-line:none;text-decoration-style:solid;text-decoration-color:#000;text-transform:none;block-progression:tb;white-space:normal;isolation:auto;mix-blend-mode:normal;solid-color:#000;solid-opacity:1" d="M2.5 15v4.5h1V15h-1z" color="#000" font-weight="400" font-family="sans-serif" overflow="visible"></path><path style="line-height:normal;text-indent:0;text-align:start;text-decoration-line:none;text-decoration-style:solid;text-decoration-color:#000;text-transform:none;block-progression:tb;white-space:normal;isolation:auto;mix-blend-mode:normal;solid-color:#000;solid-opacity:1" d="M2.992 7.5a.5.5 0 00-.492.507v4.484a.5.5 0 101 0V8.007a.5.5 0 00-.508-.508zM.992 7.5a.5.5 0 00-.492.507v4.484a.5.5 0 101 0V8.007a.5.5 0 00-.508-.508z" color="#000" font-weight="400" font-family="sans-serif" overflow="visible" stroke-linecap="round"></path><path style="line-height:normal;text-indent:0;text-align:start;text-decoration-line:none;text-decoration-style:solid;text-decoration-color:#000;text-transform:none;block-progression:tb;white-space:normal;isolation:auto;mix-blend-mode:normal;solid-color:#000;solid-opacity:1" d="M30.977 7.5a.5.5 0 00-.266.085c-2.552 1.735-3.175 4.255-3.211 6.238a.5.5 0 000 .01v5.104a.5.5 0 00.5.5h.5l.008 6.062a.5.5 0 00.5.5H31a.5.5 0 00.5-.5l-.002-6.513v-.01a.5.5 0 00-.002-.088.5.5 0 000-.012l-.004-10.881a.5.5 0 00-.516-.5zm-.485 1.616l.004 9.32h-1.418a.5.5 0 00-.16 0H28.5v-4.595c.028-1.547.467-3.289 1.992-4.725zm-.992 10.32h.998L30.5 25h-.994l-.006-5.562z" color="#000" font-weight="400" font-family="sans-serif" overflow="visible" stroke-linecap="round" stroke-linejoin="round"></path><path style="line-height:normal;text-indent:0;text-align:start;text-decoration-line:none;text-decoration-style:solid;text-decoration-color:#000;text-transform:none;block-progression:tb;white-space:normal;isolation:auto;mix-blend-mode:normal;solid-color:#000;solid-opacity:1" d="M15.264 9.5c-2.353 0-4.252 1.992-4.25 4.413 0 .358.08.78.13 1.197.052.418.041.844.026.89-.352 1.048-.138 2.024.453 2.679.59.654 1.487 1 2.465 1.08h.01c.392.024.803.348 1.306.777.411.35.931.702 1.563.844l.035.117h.375c.666 0 1.155-.232 1.496-.523.341-.291.57-.586.994-.889.38-.271 1-.624 1.547-1.062.546-.44 1.086-1.006 1.086-1.787 0-.615-.433-.982-.709-1.24-.276-.26-.393-.412-.393-.499v-.014l-.002-.014c-.002-.045.13-.359.338-.73.208-.372.487-.856.338-1.446-.133-.527-.512-.865-.855-1.115-.343-.25-.68-.444-.883-.635-.126-.118-.206-.42-.434-.83-.228-.409-.758-.826-1.543-.826-.34 0-.57.138-.724.205-.155.068-.197.061-.186.064-.593-.16-1.248-.66-2.183-.66zm-.002 1c.524 0 1.09.4 1.923.626.363.098.662-.033.85-.115.189-.083.305-.121.324-.121.528 0 .543.088.668.312s.207.682.623 1.072c.331.311.702.514.979.715.277.202.429.37.474.551.03.12-.051.373-.242.713-.187.336-.479.707-.457 1.256.007.603.431.964.703 1.219.275.257.393.41.393.51 0 .285-.257.64-.713 1.007-.456.367-1.046.702-1.502 1.028-.531.379-.83.742-1.062.941-.233.199-.365.285-.846.285-.428 0-.83-.301-1.324-.723-.494-.42-1.065-.964-1.897-1.013h.012c-.787-.064-1.44-.351-1.803-.754s-.51-.908-.248-1.69c.15-.45.077-.882.022-1.33-.056-.448-.125-.903-.125-1.074-.001-1.903 1.46-3.415 3.248-3.414z" color="#000" font-weight="400" font-family="sans-serif" overflow="visible"></path><path style="line-height:normal;text-indent:0;text-align:start;text-decoration-line:none;text-decoration-style:solid;text-decoration-color:#000;text-transform:none;block-progression:tb;white-space:normal;isolation:auto;mix-blend-mode:normal;solid-color:#000;solid-opacity:1" d="M15.271 6.08a9.462 9.462 0 00-3.328 1.083.5.5 0 10.479.877 8.496 8.496 0 0111.04 2.584 8.495 8.495 0 01-1.349 11.258 8.491 8.491 0 01-11.336-.098 8.495 8.495 0 01-1.156-11.28.5.5 0 10-.809-.587 9.509 9.509 0 001.292 12.607 9.507 9.507 0 0012.671.108 9.507 9.507 0 001.506-12.582 9.507 9.507 0 00-9.01-3.97z" color="#000" font-weight="400" font-family="sans-serif" overflow="visible" stroke-linecap="round" stroke-linejoin="round"></path><path d="M10.01 8.777a.5.5 0 00.5.5.5.5 0 00.5-.5.5.5 0 00-.5-.5.5.5 0 00-.5.5z" stroke-width=".265" stroke-linecap="round" stroke-linejoin="round"></path></g><!----></svg>