<svg data-v-fde0c5aa="" xmlns="http://www.w3.org/2000/svg" viewBox="0 0 300 300" class="iconAbove"><!----><defs data-v-fde0c5aa=""><!----></defs><rect data-v-fde0c5aa="" fill="#ffffff" x="0" y="0" width="300px" height="300px" class="logo-background-square"></rect><defs data-v-fde0c5aa=""><!----></defs><g data-v-fde0c5aa="" id="9569a218-855b-4ac2-8716-c6e26c39f241" fill="#1F4529" transform="matrix(2.2254557555856276,0,0,2.2254557555856276,18.130617091025446,174.0329549448441)"><path d="M0.84 1.05L0.84 12.60L3.47 12.60L3.47 8.04L7 12.60L10.35 12.60L6.37 7.83C7.78 7.38 8.74 6.22 8.74 4.48C8.74 2.21 7.11 1.05 4.97 1.05ZM3.47 6.17L3.47 3.15L3.78 3.15C4.77 3.15 5.96 3.22 5.96 4.66C5.96 6.10 4.77 6.17 3.78 6.17ZM17.79 9.35C17.81 9.27 17.81 9.11 17.81 9.02C17.81 6.50 16.14 5.21 13.96 5.21C11.79 5.21 10.01 6.92 10.01 9.02C10.01 11.10 11.79 12.81 13.96 12.81C15.55 12.81 16.87 12.29 17.68 10.93L15.89 10.04C15.29 10.68 14.94 10.84 14.14 10.84C13.51 10.84 12.59 10.46 12.59 9.35ZM12.66 7.98C12.70 7.32 13.17 6.82 14.03 6.82C14.76 6.82 15.27 7.22 15.39 7.98ZM22.79 7.24C23.53 7.24 24.00 7.57 24.00 7.57L24.84 5.88C24.84 5.88 24.02 5.21 22.43 5.21C20.34 5.21 18.45 6.92 18.45 9.03C18.45 11.13 20.36 12.81 22.43 12.81C24.02 12.81 24.84 12.17 24.84 12.17L24.00 10.44C24.00 10.44 23.53 10.78 22.79 10.78C21.85 10.78 21.08 10.00 21.08 9.00C21.08 8.02 21.85 7.24 22.79 7.24ZM27.09 0.98C26.28 0.98 25.62 1.64 25.62 2.45C25.62 3.26 26.28 3.92 27.09 3.92C27.90 3.92 28.56 3.26 28.56 2.45C28.56 1.64 27.90 0.98 27.09 0.98ZM25.82 5.42L28.29 5.42L28.29 12.60L25.82 12.60ZM38.44 9.00C38.44 6.90 36.97 5.21 34.87 5.21C33.89 5.21 33.05 5.64 32.52 6.23L32.49 6.23L32.49 5.42L30.04 5.42L30.04 16.24L32.52 16.24L32.52 11.91C33.11 12.49 33.91 12.81 34.87 12.81C36.97 12.81 38.44 11.10 38.44 9.00ZM35.81 9.00C35.81 10.00 35.07 10.70 34.13 10.70C33.21 10.70 32.47 10.00 32.47 9.00C32.47 8.02 33.17 7.32 34.13 7.32C35.14 7.32 35.81 8.02 35.81 9.00ZM46.87 9.35C46.89 9.27 46.89 9.11 46.89 9.02C46.89 6.50 45.22 5.21 43.04 5.21C40.87 5.21 39.09 6.92 39.09 9.02C39.09 11.10 40.87 12.81 43.04 12.81C44.63 12.81 45.95 12.29 46.76 10.93L44.97 10.04C44.37 10.68 44.02 10.84 43.22 10.84C42.59 10.84 41.66 10.46 41.66 9.35ZM41.73 7.98C41.78 7.32 42.25 6.82 43.11 6.82C43.83 6.82 44.35 7.22 44.46 7.98ZM61.42 12.60L64.05 12.60L63.01 1.05L60.21 1.05L57.65 7.71L55.09 1.05L52.29 1.05L51.25 12.60L53.89 12.60L54.43 5.75L54.50 5.75L56.87 12.53L58.44 12.53L60.80 5.75L60.87 5.75ZM64.60 9.02C64.60 11.12 66.07 12.81 68.17 12.81C69.15 12.81 69.99 12.38 70.52 11.79L70.55 11.79L70.55 12.60L73.00 12.60L73.00 5.42L70.52 5.42L70.52 6.10C69.93 5.53 69.13 5.21 68.17 5.21C66.07 5.21 64.60 6.92 64.60 9.02ZM67.23 9.02C67.23 8.02 67.97 7.32 68.91 7.32C69.83 7.32 70.57 8.02 70.57 9.02C70.57 10.00 69.87 10.70 68.91 10.70C67.90 10.70 67.23 10.00 67.23 9.02ZM74.68 12.60L77.15 12.60L77.15 8.54C77.15 7.83 77.88 7.14 78.62 7.14C79.42 7.14 79.91 7.83 79.91 8.54L79.91 12.60L82.39 12.60L82.39 7.87C82.39 5.87 80.56 5.21 79.24 5.21C78.46 5.21 77.74 5.61 77.18 6.17L77.15 6.17L77.15 5.42L74.68 5.42ZM83.41 9.02C83.41 11.12 84.88 12.81 86.98 12.81C87.96 12.81 88.80 12.38 89.33 11.79L89.36 11.79L89.36 12.60L91.81 12.60L91.81 5.42L89.33 5.42L89.33 6.10C88.75 5.53 87.95 5.21 86.98 5.21C84.88 5.21 83.41 6.92 83.41 9.02ZM86.04 9.02C86.04 8.02 86.79 7.32 87.72 7.32C88.65 7.32 89.39 8.02 89.39 9.02C89.39 10.00 88.69 10.70 87.72 10.70C86.72 10.70 86.04 10.00 86.04 9.02ZM93.17 14.36C93.93 16.11 95.65 16.45 97.15 16.45C99.60 16.45 101.37 15.20 101.37 12.80L101.37 5.42L98.90 5.42L98.90 6.06L98.85 6.06C98.27 5.52 97.50 5.21 96.54 5.21C94.44 5.21 92.97 6.92 92.97 9.02C92.97 11.12 94.44 12.81 96.54 12.81C97.52 12.81 98.36 12.67 98.90 12.08L98.90 12.61C98.90 13.89 97.83 14.29 97.15 14.29C96.07 14.29 95.47 13.80 95.20 13.37ZM95.61 9.02C95.61 8.02 96.35 7.32 97.29 7.32C98.21 7.32 98.95 8.02 98.95 9.02C98.95 10.00 98.25 10.70 97.29 10.70C96.28 10.70 95.61 10.00 95.61 9.02ZM110.25 9.35C110.26 9.27 110.26 9.11 110.26 9.02C110.26 6.50 108.60 5.21 106.41 5.21C104.24 5.21 102.47 6.92 102.47 9.02C102.47 11.10 104.24 12.81 106.41 12.81C108.01 12.81 109.33 12.29 110.14 10.93L108.35 10.04C107.74 10.68 107.39 10.84 106.60 10.84C105.97 10.84 105.04 10.46 105.04 9.35ZM105.11 7.98C105.15 7.32 105.63 6.82 106.48 6.82C107.21 6.82 107.73 7.22 107.84 7.98ZM111.40 12.60L113.88 12.60L113.88 8.82C113.88 8.64 114.06 7.36 115.35 7.36C116.17 7.36 116.63 7.76 116.63 7.76L117.67 5.66C117.67 5.66 117.03 5.21 116.10 5.21C114.69 5.21 113.90 6.45 113.90 6.45L113.88 6.45L113.88 5.42L111.40 5.42Z"></path></g><defs data-v-fde0c5aa=""><!----></defs><g data-v-fde0c5aa="" id="d9e0e9f0-afec-4e84-9950-70c724d9b8ff" stroke="none" fill="#1F4529" transform="matrix(3.443067965889856,0,0,3.443067965889856,94.91099904719064,68.69757569126112)"><path style="line-height:normal;text-indent:0;text-align:start;text-decoration-line:none;text-decoration-style:solid;text-decoration-color:#000;text-transform:none;block-progression:tb;white-space:normal;isolation:auto;mix-blend-mode:normal;solid-color:#000;solid-opacity:1" d="M13.967 13.466c-.71.83-.577 2.51.3 3.266.984.984 2.577 1.038 3.54.076.962-.962.787-2.734-.077-3.537-.92-.855-2.488-1.296-3.763.195zm1.97.029c.384.01.775.17 1.086.48.622.622.636 1.564.077 2.123-.56.56-1.503.546-2.125-.076-.621-.62-.634-1.561-.079-2.12h.002a1.4 1.4 0 011.04-.405z" color="#000" font-weight="400" font-family="sans-serif" overflow="visible"></path><path style="line-height:normal;text-indent:0;text-align:start;text-decoration-line:none;text-decoration-style:solid;text-decoration-color:#000;text-transform:none;block-progression:tb;white-space:normal;isolation:auto;mix-blend-mode:normal;solid-color:#000;solid-opacity:1" d="M4.992 7.5a.5.5 0 00-.492.507v4.484a.5.5 0 101 0V8.007a.5.5 0 00-.508-.508z" color="#000" font-weight="400" font-family="sans-serif" overflow="visible" stroke-linecap="round"></path><path style="line-height:normal;text-indent:0;text-align:start;text-decoration-line:none;text-decoration-style:solid;text-decoration-color:#000;text-transform:none;block-progression:tb;white-space:normal;isolation:auto;mix-blend-mode:normal;solid-color:#000;solid-opacity:1" d="M.5 12.5v1.571c0 .584.333 1.09.793 1.418.46.329 1.057.51 1.707.51.65 0 1.245-.181 1.705-.51.46-.328.795-.834.795-1.418V12.5h-5zm1 1h3v.571c0 .208-.112.416-.375.604s-.667.324-1.125.324c-.458 0-.862-.136-1.125-.324s-.375-.396-.375-.604V13.5zM1.5 18.5v6.317c0 .375.213.695.482.89.27.193.605.292.963.292h.11c.358 0 .692-.099.96-.293.27-.194.485-.514.485-.889V18.5h-3zm1 1h1v5.317s.002.026-.07.078a.668.668 0 01-.375.104h-.11a.68.68 0 01-.377-.103c-.072-.053-.068-.075-.068-.079V19.5z" color="#000" font-weight="400" font-family="sans-serif" overflow="visible" stroke-linecap="round"></path><path style="line-height:normal;text-indent:0;text-align:start;text-decoration-line:none;text-decoration-style:solid;text-decoration-color:#000;text-transform:none;block-progression:tb;white-space:normal;isolation:auto;mix-blend-mode:normal;solid-color:#000;solid-opacity:1" d="M2.5 15v4.5h1V15h-1z" color="#000" font-weight="400" font-family="sans-serif" overflow="visible"></path><path style="line-height:normal;text-indent:0;text-align:start;text-decoration-line:none;text-decoration-style:solid;text-decoration-color:#000;text-transform:none;block-progression:tb;white-space:normal;isolation:auto;mix-blend-mode:normal;solid-color:#000;solid-opacity:1" d="M2.992 7.5a.5.5 0 00-.492.507v4.484a.5.5 0 101 0V8.007a.5.5 0 00-.508-.508zM.992 7.5a.5.5 0 00-.492.507v4.484a.5.5 0 101 0V8.007a.5.5 0 00-.508-.508z" color="#000" font-weight="400" font-family="sans-serif" overflow="visible" stroke-linecap="round"></path><path style="line-height:normal;text-indent:0;text-align:start;text-decoration-line:none;text-decoration-style:solid;text-decoration-color:#000;text-transform:none;block-progression:tb;white-space:normal;isolation:auto;mix-blend-mode:normal;solid-color:#000;solid-opacity:1" d="M30.977 7.5a.5.5 0 00-.266.085c-2.552 1.735-3.175 4.255-3.211 6.238a.5.5 0 000 .01v5.104a.5.5 0 00.5.5h.5l.008 6.062a.5.5 0 00.5.5H31a.5.5 0 00.5-.5l-.002-6.513v-.01a.5.5 0 00-.002-.088.5.5 0 000-.012l-.004-10.881a.5.5 0 00-.516-.5zm-.485 1.616l.004 9.32h-1.418a.5.5 0 00-.16 0H28.5v-4.595c.028-1.547.467-3.289 1.992-4.725zm-.992 10.32h.998L30.5 25h-.994l-.006-5.562z" color="#000" font-weight="400" font-family="sans-serif" overflow="visible" stroke-linecap="round" stroke-linejoin="round"></path><path style="line-height:normal;text-indent:0;text-align:start;text-decoration-line:none;text-decoration-style:solid;text-decoration-color:#000;text-transform:none;block-progression:tb;white-space:normal;isolation:auto;mix-blend-mode:normal;solid-color:#000;solid-opacity:1" d="M15.264 9.5c-2.353 0-4.252 1.992-4.25 4.413 0 .358.08.78.13 1.197.052.418.041.844.026.89-.352 1.048-.138 2.024.453 2.679.59.654 1.487 1 2.465 1.08h.01c.392.024.803.348 1.306.777.411.35.931.702 1.563.844l.035.117h.375c.666 0 1.155-.232 1.496-.523.341-.291.57-.586.994-.889.38-.271 1-.624 1.547-1.062.546-.44 1.086-1.006 1.086-1.787 0-.615-.433-.982-.709-1.24-.276-.26-.393-.412-.393-.499v-.014l-.002-.014c-.002-.045.13-.359.338-.73.208-.372.487-.856.338-1.446-.133-.527-.512-.865-.855-1.115-.343-.25-.68-.444-.883-.635-.126-.118-.206-.42-.434-.83-.228-.409-.758-.826-1.543-.826-.34 0-.57.138-.724.205-.155.068-.197.061-.186.064-.593-.16-1.248-.66-2.183-.66zm-.002 1c.524 0 1.09.4 1.923.626.363.098.662-.033.85-.115.189-.083.305-.121.324-.121.528 0 .543.088.668.312s.207.682.623 1.072c.331.311.702.514.979.715.277.202.429.37.474.551.03.12-.051.373-.242.713-.187.336-.479.707-.457 1.256.007.603.431.964.703 1.219.275.257.393.41.393.51 0 .285-.257.64-.713 1.007-.456.367-1.046.702-1.502 1.028-.531.379-.83.742-1.062.941-.233.199-.365.285-.846.285-.428 0-.83-.301-1.324-.723-.494-.42-1.065-.964-1.897-1.013h.012c-.787-.064-1.44-.351-1.803-.754s-.51-.908-.248-1.69c.15-.45.077-.882.022-1.33-.056-.448-.125-.903-.125-1.074-.001-1.903 1.46-3.415 3.248-3.414z" color="#000" font-weight="400" font-family="sans-serif" overflow="visible"></path><path style="line-height:normal;text-indent:0;text-align:start;text-decoration-line:none;text-decoration-style:solid;text-decoration-color:#000;text-transform:none;block-progression:tb;white-space:normal;isolation:auto;mix-blend-mode:normal;solid-color:#000;solid-opacity:1" d="M15.271 6.08a9.462 9.462 0 00-3.328 1.083.5.5 0 10.479.877 8.496 8.496 0 0111.04 2.584 8.495 8.495 0 01-1.349 11.258 8.491 8.491 0 01-11.336-.098 8.495 8.495 0 01-1.156-11.28.5.5 0 10-.809-.587 9.509 9.509 0 001.292 12.607 9.507 9.507 0 0012.671.108 9.507 9.507 0 001.506-12.582 9.507 9.507 0 00-9.01-3.97z" color="#000" font-weight="400" font-family="sans-serif" overflow="visible" stroke-linecap="round" stroke-linejoin="round"></path><path d="M10.01 8.777a.5.5 0 00.5.5.5.5 0 00.5-.5.5.5 0 00-.5-.5.5.5 0 00-.5.5z" stroke-width=".265" stroke-linecap="round" stroke-linejoin="round"></path></g><!----></svg>